<svg
  xmlns="http://www.w3.org/2000/svg"
  width="1000"
  height="1000"
  viewBox="0 0 1000 1000"
>
  <path
    id="ns-logo"
    d="M120,803.372H259.876V410.611l300.669,328.4s71.9,69.62,24.838,116.908C536.5,893.487,479.5,834.9,479.5,834.9l-73.206-82.756H291.25s92.489,197.695,226.155,219.369c134.667,21.836,180.4-65.679,180.4-65.679s50.656-59.112,0-177.334c-45.649-50.35-284.848-304.312-440.545-462.381H120V803.372ZM880,196.628H740.124V589.389l-300.669-328.4s-71.9-69.62-24.838-116.908C463.5,106.513,520.505,165.1,520.505,165.1l73.206,82.756H708.75S616.261,50.163,482.6,28.489c-134.667-21.836-180.4,65.679-180.4,65.679s-50.656,59.112,0,177.334c45.649,50.35,284.848,304.312,440.545,462.381H880V196.628Z"
  />
</svg>
