<svg aria-hidden="true" focusable="false" role="img" viewBox="0 0 24 24" 
  xmlns="http://www.w3.org/2000/svg">
  <path id="ns" d="M 2.578521,19.521586 H 6.0465194 V 9.783722 l 7.4545976,8.142137 c 0,0 1.782639,1.726115 0.615813,2.898542 -1.211968,0.931438 -2.625194,-0.521131 -2.625194,-0.521131 L 9.6767138,18.25147 H 6.8243891 c 0,0 2.2931116,4.901523 5.6071399,5.438896 3.338845,0.541386 4.472725,-1.628403 4.472725,-1.628403 0,0 1.255929,-1.465586 0,-4.396707 C 15.77246,16.416911 9.841912,10.12034 5.9816581,6.2012797 H 2.578521 Z M 21.421479,4.4783647 H 17.95348 V 14.216228 L 10.498884,6.0740897 c 0,0 -1.7826394,-1.7261137 -0.615813,-2.898542 1.211968,-0.9314368 2.625316,0.5211316 2.625316,0.5211316 l 1.81502,2.0517995 h 2.852204 c 0,0 -2.293112,-4.9014736 -5.607017,-5.4388448 -3.3388463,-0.5413877 -4.4727198,1.6284032 -4.4727198,1.6284032 0,0 -1.255936,1.4655849 0,4.3967051 1.1317932,1.248346 7.0623358,7.5449157 10.9225888,11.4639767 h 3.403016 z" />
</svg>
