<svg xmlns="http://www.w3.org/2000/svg" viewBox="0 0 16 16">
  <path fill="#1ed760" d="M 6.7230301,0 C 3.0100799,0 0,3.0100011 0,6.7229512 0,10.436059 3.0100799,13.44582 6.7230301,13.44582 c 3.7133479,0 6.7231099,-3.009761 6.7231099,-6.7228688 0,-3.7127105 -3.009762,-6.72262957243 -6.7231919,-6.72262957243 z"/>
  <path fill="#000" d="m 6.7720644,1.2222585 c -3.0374856,0 -5.5,2.4625147 -5.5,5.5 0,3.0376145 2.4625144,5.4999995 5.5,5.4999995 1.350437,0 2.5857727,-0.487483 3.5429696,-1.294922 l 0.970702,0.970704 c -0.252034,0.141651 -0.297015,0.485839 -0.08984,0.6875 l 3.287109,3.287109 c 0.169168,0.169801 0.444115,0.169801 0.613283,0 l 0.777342,-0.777344 c 0.168498,-0.168944 0.168498,-0.442384 0,-0.611328 l -3.289062,-3.289063 c -0.20166,-0.20717 -0.545847,-0.16219 -0.6875,0.08984 l -0.96875,-0.96875 c 0.834745,-0.9644216 1.34375,-2.2180859 1.34375,-3.5937495 0,-3.0372894 -2.4621217,-5.4999998 -5.4999996,-5.5 z m 0,1 c 2.4855366,0 4.4999996,2.0149449 4.4999996,4.5 0,2.4853216 -2.0145179,4.4999995 -4.4999996,4.4999995 -2.4852156,0 -4.5,-2.0146779 -4.5,-4.4999995 0,-2.4852153 2.0147844,-4.5 4.5,-4.5 z M 5.9302675,4.5386648 C 5.1118509,4.525753 4.3346524,4.6192029 3.7056581,4.8101492 3.4708531,4.8814803 3.339629,5.1300887 3.4107363,5.3648367 3.4818393,5.5994729 3.7288486,5.7329144 3.9634706,5.6617117 5.4246568,5.2182826 7.9506497,5.3015393 9.4810487,6.2105398 9.6914152,6.3358532 10.02396,6.2902664 10.090424,6.0542898 10.206699,5.64146 9.87558,5.5308523 9.87558,5.5308523 8.7743435,4.8771059 7.2942952,4.5601844 5.9302675,4.5386648 Z m 0.1035156,1.609375 C 5.3270226,6.1326355 4.6218762,6.2193979 3.9751894,6.4156179 3.7797373,6.4751548 3.6701247,6.6827154 3.7290956,6.8785085 3.7885203,7.0739644 3.9942393,7.1837441 4.1900331,7.1246023 5.6997437,6.6663317 7.6460763,6.8927977 8.922455,7.6773367 9.0965322,7.7845042 9.3231001,7.7304331 9.4302675,7.5562429 9.5374356,7.3823932 9.4832502,7.1536454 9.3091737,7.0464773 8.3930711,6.4835257 7.2117173,6.1737136 6.0337831,6.1480398 Z M 6.06308,7.6968679 C 5.4593774,7.6857877 4.8175565,7.7567428 4.1392519,7.9117117 3.979576,7.9480011 3.8801239,8.1078456 3.9165956,8.2671804 3.952884,8.4265153 4.112788,8.5261286 4.2720644,8.4898367 5.924948,8.1121986 7.3270996,8.2658703 8.4419863,8.9468679 8.5814752,9.0324883 8.765135,8.9887013 8.8501894,8.8492117 8.9358104,8.709724 8.8920214,8.5285846 8.7525331,8.4429617 7.9702492,7.9648882 7.069251,7.715335 6.06308,7.6968679 Z"/>
</svg>